<svg width="137" height="48" viewBox="0 0 137 48" fill="none" xmlns="http://www.w3.org/2000/svg">
<path fill-rule="evenodd" clip-rule="evenodd" d="M48.234 4.96647C48.234 9.68869 40.9482 9.68869 40.9482 4.96647C40.9482 0.244249 48.234 0.244249 48.234 4.96647ZM41.5047 36.382V11.7776H47.6753V36.382H41.5047Z" fill="#FBC02D"/>
<path d="M69.8382 36.382V23.2709C69.8382 20.0398 68.1168 17.1065 64.7284 17.1065C61.3875 17.1065 59.4151 20.0398 59.4151 23.2709V36.3932H53.2422V11.8265H58.9604L59.4128 14.8087C60.727 12.3243 63.611 11.4287 65.9906 11.4287C68.9741 11.4287 71.9599 12.622 73.3759 16.002C75.6039 12.522 78.4879 11.5287 81.7247 11.5287C88.8092 11.5287 92.2994 15.802 92.2994 23.1598V36.382H86.1288V23.1598C86.1288 19.9287 84.7716 17.1954 81.4239 17.1954C78.0762 17.1954 76.002 20.0287 76.002 23.2598V36.382H69.8382Z" fill="#FBC02D"/>
<path fill-rule="evenodd" clip-rule="evenodd" d="M105.305 4.96647C105.305 9.68869 98.0195 9.68869 98.0195 4.96647C98.0195 0.244249 105.305 0.244249 105.305 4.96647ZM98.576 36.382V11.7776H104.749V36.382H98.576Z" fill="#FBC02D"/>
<path fill-rule="evenodd" clip-rule="evenodd" d="M136.018 11.8753H130.096L129.895 15.2553C128.479 12.8197 125.292 11.2797 121.951 11.2797C114.665 11.2308 108.949 15.6597 108.949 24.1041C108.949 32.7041 114.412 37.1775 121.799 37.1264C124.582 37.0775 128.479 35.6908 129.895 32.8019L130.198 36.3819H136.018V11.8753ZM122.507 31.553C118.409 31.553 115.122 28.7641 115.122 24.0975L115.133 24.1041C115.133 19.4308 118.409 16.6975 122.507 16.6908C132.222 16.6908 132.222 31.553 122.507 31.553Z" fill="#FBC02D"/>
<path d="M30.8304 0H5.66846C2.53941 0.00367348 0.00373916 2.4948 0 5.56889V32.2222C0.011203 35.2911 2.54469 37.7741 5.66846 37.7778H15.1936V31.7778H6.10728V6H30.3894V31.7778H21.3054V37.7778H30.8304C33.9542 37.7741 36.4877 35.2911 36.4989 32.2222V5.56889C36.4952 2.4948 33.9595 0.00367348 30.8304 0Z" fill="#FBC02D"/>
<path d="M22.1851 43.7866V44.6533V43.7866H21.3052V47.8622H25.4536V43.7866H22.1851Z" fill="#FBC02D"/>
<rect x="15.1934" y="37.7847" width="6.10954" height="6.00222" fill="#FBC02D"/>
<path d="M34.2394 44.9111C34.2734 45.1924 34.5213 45.4012 34.8095 45.3911H34.9339V45.4689H33.2329V45.3955H33.355C33.5307 45.3871 33.6668 45.2415 33.6604 45.0689L33.3053 41.2L31.6676 44.7911C31.5489 45.0429 31.4586 45.3067 31.3984 45.5778H31.3238L29.3242 41.3111L28.9804 45.0689C28.9727 45.2424 29.1092 45.3894 29.2858 45.3978H29.4056V45.4689H27.8901V45.3933H28.0145C28.3031 45.4022 28.5507 45.1928 28.5846 44.9111L29.1727 39.98H29.245L31.4301 44.62L33.5631 39.9822H33.6355L34.2394 44.9111Z" fill="#FBC02D"/>
<path fill-rule="evenodd" clip-rule="evenodd" d="M41.0005 45.3891C40.7287 45.368 40.4936 45.195 40.3965 44.9446L38.4648 40.7446H38.3902C38.3167 41.0174 38.216 41.2824 38.0893 41.5357L36.4698 44.9446C36.3678 45.196 36.1291 45.3684 35.8545 45.3891H35.7935V45.4646H37.2841V45.3891H37.2208C37.1064 45.3844 37.003 45.321 36.9483 45.2222C36.8936 45.1234 36.8957 45.0037 36.9538 44.9069L37.3836 43.9046H39.3628L39.7903 44.9269C39.842 45.0234 39.8392 45.1392 39.783 45.2333C39.7269 45.3273 39.6253 45.3862 39.5144 45.3891H39.451V45.4646H41.0593V45.3891H41.0005ZM38.3857 41.5757L39.2656 43.678H37.4809L38.3857 41.5757Z" fill="#FBC02D"/>
<path d="M46.8927 43.5335L46.8112 44.5846C46.4041 45.2002 45.5807 45.5757 44.6556 45.5757C43.0722 45.5757 42.0747 44.6513 42.0747 43.1624C42.0747 41.6735 43.0722 40.7491 44.6556 40.7491C45.2968 40.7466 45.9278 40.9065 46.4878 41.2135L46.662 42.3002H46.5964C46.3566 41.3579 45.626 40.9802 44.6556 40.9802C43.4183 40.9802 42.6447 41.8091 42.6447 43.1624C42.6447 44.5157 43.4183 45.3268 44.6624 45.3379C45.8296 45.3379 46.7456 44.7935 46.8293 43.5335H46.8927Z" fill="#FBC02D"/>
<path d="M51.7992 45.4688V45.391H51.8897C52.126 45.3918 52.3231 45.2136 52.3421 44.9821V43.3088H49.4626V44.9821C49.4815 45.2136 49.6786 45.3918 49.915 45.391H50.0032V45.4688H48.4062V45.391H48.4967C48.7355 45.3915 48.9336 45.2096 48.9491 44.9755V41.351C48.9347 41.116 48.7363 40.9328 48.4967 40.9332H48.4062V40.8555H50.0009V40.9332H49.9105C49.6757 40.9323 49.4792 41.108 49.4581 41.3377V43.0777H52.3466V41.351C52.3322 41.116 52.1338 40.9328 51.8942 40.9332H51.7992V40.8555H53.3826V40.9332H53.2921C53.0581 40.9322 52.8619 41.1066 52.8397 41.3355V44.9821C52.8575 45.2145 53.0549 45.3939 53.2921 45.3932H53.3803V45.4688H51.7992Z" fill="#FBC02D"/>
<path d="M55.0337 45.4688V45.3932H55.1377C55.4004 45.4169 55.6352 45.2324 55.6693 44.9755V41.351C55.6352 41.0941 55.4004 40.9096 55.1377 40.9332H55.0337V40.8555H56.8071V40.9332H56.7008C56.4445 40.9112 56.2141 41.0863 56.1715 41.3355V44.9821C56.2099 45.2349 56.4416 45.4148 56.7008 45.3932H56.8071V45.4688H55.0337Z" fill="#FBC02D"/>
<path d="M63.8373 40.8577V40.9333H63.7061C63.4813 40.9301 63.2919 41.0977 63.2718 41.3177V44.5955C63.2749 44.9242 63.2998 45.2523 63.3465 45.5777H63.2718L59.2003 41.7844V44.9911C59.2101 45.2187 59.4028 45.3971 59.6346 45.3933H59.7658V45.4689H58.291V45.3933H58.4222C58.654 45.3971 58.8467 45.2187 58.8565 44.9911V41.7022C58.856 41.3808 58.831 41.0599 58.7819 40.7422H58.8656L62.9258 44.5V41.3177C62.9057 41.0977 62.7163 40.9301 62.4915 40.9333H62.3603V40.8577H63.8373Z" fill="#FBC02D"/>
<path d="M68.5037 45.469H65.3257V45.3934H65.4343C65.6733 45.401 65.8744 45.2191 65.8866 44.9845V41.3334C65.8832 41.2203 65.8331 41.1135 65.7477 41.0376C65.6623 40.9617 65.5491 40.9233 65.4343 40.9312H65.3257V40.8556H67.6103C67.9063 40.853 68.2006 40.8119 68.4856 40.7334V41.6045H68.3997V41.4867C68.4034 41.3825 68.3634 41.2813 68.289 41.2069C68.2145 41.1326 68.1123 41.0915 68.0061 41.0934H66.3843V43.0467H67.7211C67.809 43.0517 67.8946 43.0186 67.9556 42.9562C68.0165 42.8938 68.0465 42.8083 68.0378 42.7223V42.6245H68.1237V43.7045H68.0378V43.6067C68.046 43.5236 68.0184 43.441 67.9616 43.3789C67.9049 43.3168 67.8242 43.2809 67.7392 43.2801H66.382V45.2356H67.6057C68.3567 45.2356 68.6259 44.8667 68.8475 44.369H68.9335L68.5037 45.469Z" fill="#FBC02D"/>
<path d="M74.871 45.4686H73.1587V45.3931H73.2582C73.5317 45.3931 73.7544 45.1773 73.7581 44.9086V40.6442C73.752 40.3773 73.5299 40.1641 73.2582 40.1642H73.1587V40.0864H74.871V40.1642H74.7715C74.5002 40.1641 74.2779 40.3756 74.2693 40.642V44.9086C74.2754 45.1771 74.4981 45.392 74.7715 45.3931H74.871V45.4686Z" fill="#FBC02D"/>
<path d="M81.9372 40.8577V40.9333H81.8083C81.5831 40.929 81.3931 41.0972 81.374 41.3177V44.5955C81.377 44.9241 81.4011 45.2522 81.4464 45.5777H81.3718L77.3002 41.7844V44.9911C77.3112 45.219 77.5045 45.3972 77.7368 45.3933H77.868V45.4689H76.3887V45.3933H76.5176C76.7499 45.3972 76.9432 45.219 76.9542 44.9911V41.7022C76.9536 41.3808 76.9287 41.0599 76.8795 40.7422H76.9632L81.0234 44.5V41.3177C81.0033 41.0977 80.814 40.9301 80.5891 40.9333H80.4579V40.8577H81.9372Z" fill="#FBC02D"/>
<path d="M86.5291 40.849C86.8251 40.848 87.1196 40.8076 87.4045 40.729V41.5934H87.3118V41.4757C87.3155 41.3716 87.2758 41.2706 87.2019 41.1959C87.1281 41.1213 87.0264 41.0794 86.9204 41.0801H85.5045V44.9846C85.5234 45.216 85.7205 45.3942 85.9568 45.3934H86.0473V45.469H84.4346V45.3934H84.525C84.7646 45.3939 84.963 45.2107 84.9774 44.9757V41.0801H83.5614C83.4553 41.0788 83.3532 41.1204 83.2792 41.1952C83.2052 41.27 83.1658 41.3714 83.1701 41.4757V41.5934H83.0864V40.729C83.3699 40.8073 83.6628 40.8477 83.9573 40.849H86.5291Z" fill="#FBC02D"/>
<path d="M91.908 45.469H88.73V45.3934H88.8386C89.0749 45.3941 89.272 45.216 89.2909 44.9845V41.3334C89.2869 41.2205 89.2365 41.1141 89.1513 41.0383C89.0661 40.9626 88.9533 40.9239 88.8386 40.9312H88.73V40.8556H91.0146C91.3106 40.853 91.6049 40.8119 91.8899 40.7334V41.6045H91.804V41.4867C91.8077 41.3829 91.768 41.2821 91.694 41.2078C91.6201 41.1334 91.5184 41.0921 91.4127 41.0934H89.7999V43.0467H91.1367C91.2246 43.0517 91.3102 43.0186 91.3712 42.9562C91.4321 42.8938 91.4621 42.8083 91.4534 42.7223V42.6245H91.5393V43.7045H91.4534V43.6067C91.4616 43.5236 91.434 43.441 91.3772 43.3789C91.3205 43.3168 91.2398 43.2809 91.1548 43.2801H89.7976V45.2356H91.0213C91.7723 45.2356 92.0415 44.8667 92.2632 44.369H92.3491L91.908 45.469Z" fill="#FBC02D"/>
<path d="M97.3161 44.3668L96.8841 45.4779H93.7061V45.4024H93.8146C94.0536 45.4099 94.2548 45.2281 94.267 44.9935V41.3512C94.2524 41.1101 94.0445 40.9246 93.7988 40.9335H93.7061V40.8579H95.3256V40.9335H95.2284C94.9835 40.9245 94.7759 41.1088 94.7601 41.349V45.2335H95.9861C96.7371 45.2335 97.004 44.8646 97.2257 44.3668H97.3161Z" fill="#FBC02D"/>
<path d="M102.105 44.3668L101.673 45.4779H98.4949V45.4024H98.6012C98.8403 45.4099 99.0414 45.2281 99.0536 44.9935V41.3512C99.0391 41.1101 98.8311 40.9246 98.5854 40.9335H98.4927V40.8579H100.112V40.9335H100.019C99.7755 40.9258 99.5693 41.1097 99.5535 41.349V45.2335H100.777C101.528 45.2335 101.795 44.8646 102.017 44.3668H102.105Z" fill="#FBC02D"/>
<path d="M103.284 45.4688V45.3932H103.388C103.65 45.4157 103.884 45.2318 103.919 44.9755V41.351C103.884 41.0947 103.65 40.9107 103.388 40.9332H103.281V40.8555H105.052V40.9332H104.955C104.698 40.9111 104.467 41.086 104.424 41.3355V44.9821C104.463 45.2352 104.695 45.4149 104.955 45.3932H105.059V45.4688H103.284Z" fill="#FBC02D"/>
<path d="M111.333 44.5865C110.78 45.2292 109.962 45.5926 109.105 45.5754C107.558 45.5754 106.538 44.6531 106.538 43.162C106.538 41.6709 107.56 40.7487 109.103 40.7487C109.744 40.729 110.378 40.8901 110.929 41.2131L111.1 42.2998H111.033C110.806 41.4109 110.189 40.9798 109.096 40.9798C107.9 40.9798 107.104 41.8087 107.104 43.162C107.104 44.5154 107.904 45.3465 109.105 45.3465C109.747 45.3634 110.368 45.1227 110.824 44.6798L110.838 43.6576C110.838 43.4642 110.702 43.3554 110.474 43.3554H110.361V43.2798H111.797V43.3554H111.691C111.465 43.3554 111.333 43.4642 111.333 43.662V44.5865Z" fill="#FBC02D"/>
<path d="M116.229 45.469H113.048V45.3934H113.157C113.396 45.401 113.597 45.2191 113.609 44.9845V41.3334C113.605 41.2205 113.555 41.1141 113.47 41.0383C113.384 40.9626 113.272 40.9239 113.157 40.9312H113.051V40.8556H115.337C115.633 40.8531 115.926 40.812 116.211 40.7334V41.6045H116.127V41.4867C116.131 41.3825 116.091 41.2813 116.016 41.2069C115.942 41.1326 115.839 41.0915 115.733 41.0934H114.111V43.0467H115.448C115.536 43.0517 115.622 43.0186 115.683 42.9562C115.744 42.8938 115.774 42.8083 115.765 42.7223V42.6245H115.851V43.7045H115.765V43.6067C115.772 43.5238 115.745 43.4415 115.688 43.3796C115.631 43.3176 115.551 43.2816 115.466 43.2801H114.109V45.2356H115.333C116.084 45.2356 116.353 44.8667 116.575 44.369H116.658L116.229 45.469Z" fill="#FBC02D"/>
<path d="M123.503 40.8577V40.9333H123.374C123.148 40.9289 122.958 41.0968 122.937 41.3177V44.5955C122.941 44.9242 122.965 45.2523 123.012 45.5777H122.937L118.866 41.7844V44.9911C118.876 45.2196 119.07 45.3983 119.303 45.3933H119.431V45.4689H117.952V45.3933H118.074C118.307 45.3972 118.5 45.219 118.511 44.9911V41.7022C118.51 41.3807 118.485 41.0598 118.434 40.7422H118.52L122.591 44.5V41.3177C122.57 41.0939 122.375 40.9252 122.146 40.9333H122.017V40.8577H123.503Z" fill="#FBC02D"/>
<path d="M129.721 43.5335L129.637 44.5846C129.233 45.2002 128.407 45.5757 127.484 45.5757C125.901 45.5757 124.901 44.6513 124.901 43.1624C124.901 41.6735 125.898 40.749 127.484 40.749C128.125 40.7469 128.756 40.9068 129.316 41.2135L129.488 42.3002H129.42C129.181 41.3579 128.45 40.9802 127.48 40.9802C126.24 40.9802 125.466 41.809 125.466 43.1624C125.466 44.5157 126.242 45.3268 127.486 45.3379C128.651 45.3379 129.567 44.7935 129.653 43.5335H129.721Z" fill="#FBC02D"/>
<path d="M134.422 45.469H131.241V45.3934H131.35C131.589 45.401 131.79 45.2191 131.802 44.9845V41.3334C131.799 41.2203 131.749 41.1135 131.663 41.0376C131.578 40.9617 131.465 40.9233 131.35 40.9312H131.241V40.8556H133.528C133.823 40.8531 134.117 40.812 134.401 40.7334V41.6045H134.317V41.4867C134.321 41.3825 134.281 41.2813 134.207 41.2069C134.132 41.1326 134.03 41.0915 133.924 41.0934H132.302V43.0467H133.639C133.727 43.0517 133.812 43.0186 133.873 42.9562C133.934 42.8938 133.964 42.8083 133.956 42.7223V42.6245H134.042V43.7045H133.956V43.6067C133.963 43.5238 133.935 43.4415 133.879 43.3796C133.822 43.3176 133.742 43.2816 133.657 43.2801H132.3V45.2356H133.524C134.274 45.2356 134.544 44.8667 134.765 44.369H134.849L134.422 45.469Z" fill="#FBC02D"/>
</svg>
